<svg xmlns="http://www.w3.org/2000/svg" viewBox="0 0 160 160" role="img" aria-labelledby="title desc">
  <title id="title">Staffordshire Police logo</title>
  <desc id="desc">A compact Staffordshire Police inspired badge with crown, star and Stafford knot.</desc>
  <defs>
    <linearGradient id="silver" x1="0" x2="1" y1="0" y2="1">
      <stop offset="0" stop-color="#f7f7f7"/>
      <stop offset="0.45" stop-color="#b9bec3"/>
      <stop offset="1" stop-color="#ffffff"/>
    </linearGradient>
    <linearGradient id="blue" x1="0" x2="1" y1="0" y2="1">
      <stop offset="0" stop-color="#0b2c62"/>
      <stop offset="1" stop-color="#0f4d91"/>
    </linearGradient>
  </defs>
  <path fill="url(#silver)" stroke="#8d949b" stroke-width="2" d="M80 6l9 35 27-24-11 35 35-9-25 26 37 10-37 10 25 26-35-9 11 35-27-24-9 35-9-35-27 24 11-35-35 9 25-26-37-10 37-10-25-26 35 9-11-35 27 24z"/>
  <path fill="#ed1b2e" stroke="#9f9f9f" stroke-width="1.5" d="M49 46c8-17 18-13 25-2 7-11 17-15 25 2 8-5 15-2 18 8-13 7-30 10-43 10s-30-3-43-10c3-10 10-13 18-8z"/>
  <path fill="#f7f7f7" stroke="#9f9f9f" stroke-width="1.5" d="M42 61c26 9 50 9 76 0l-5 14c-23 8-43 8-66 0z"/>
  <circle cx="80" cy="88" r="49" fill="url(#blue)" stroke="#ffffff" stroke-width="4"/>
  <circle cx="80" cy="88" r="32" fill="#078b62" stroke="#ffffff" stroke-width="3"/>
  <text x="80" y="56" text-anchor="middle" font-family="Arial, sans-serif" font-size="13" font-weight="700" fill="#ffffff" letter-spacing="2">STAFFORDSHIRE</text>
  <text x="80" y="124" text-anchor="middle" font-family="Arial, sans-serif" font-size="16" font-weight="700" fill="#ffffff" letter-spacing="2">POLICE</text>
  <path fill="none" stroke="#ffffff" stroke-width="7" stroke-linecap="round" d="M51 88c13-19 31-19 58 0M51 88c27 19 45 19 58 0"/>
  <path fill="none" stroke="#173b7a" stroke-width="3" stroke-linecap="round" d="M51 88c13-19 31-19 58 0M51 88c27 19 45 19 58 0"/>
  <circle cx="43" cy="88" r="4" fill="#c8cdd2" stroke="#ffffff" stroke-width="2"/>
  <circle cx="117" cy="88" r="4" fill="#c8cdd2" stroke="#ffffff" stroke-width="2"/>
</svg>
